<svg xmlns="http://www.w3.org/2000/svg" viewBox="0 0 274.96 230.3"><defs><style>.cls-1{fill:#fff;}</style></defs><title>Ativo 4</title><g id="Camada_2" data-name="Camada 2"><g id="Layer_1" data-name="Layer 1"><path class="cls-1" d="M272.46,60.73c-4.27-26.81-8.46-43.41-16.94-49.47C234.14-5.06,129.28,1.17,129.28,1.17c-15.22.65-22.92,3.32-34.13,10.62a115.21,115.21,0,0,0-9.19,7c34.44-2.78,61.87-3.57,97.76-1.33,3.13.19,4.69,0,1.37,6.64s-14.46,27.16-14.46,27.16-2.83,3-9.57,2.54c-10.13-.66-79.51,1.31-104.93-1.39C30.72,60.74,23.66,66.72,22.73,71.5c0,.08-2.08,5.8,6.54,8.24,5.91,1.67,60.55,2.33,60.55,2.33s17.51.29,26.59-2.13c11.34-3,30.18-7.43,33.82-8.25,7.12-1.58,9.87,2.77,7.45,9.78-3.45,10-5.05,11.47-19.39,12.14-66.42,3.11-121.7-3.07-121.43-5a9.56,9.56,0,0,0-4.45,5.58c-.57,2.1-.39,9,0,16.06,2.81,1.79,2.7,3.48,27.75,5.07,42.67,2.7,83.61,4,89,4,4.07-.08,7.78-.46,5.62,4.31s-3.91,8.12-24.86,9-62.49-2.74-74.69-3.88c-16.23-1.53-20.52-5.13-21.9-6.6.45,5.42.26,7.8,4.62,10.86,1.14,6.09,3.85,13.89,9.9,17.36a28.63,28.63,0,0,0,23.11,2.17c4.34-1.36,8.08-5.72,10.7-11.76,24.57,2.1,48.12,2.08,54.82,2.08,6.47,0,19.32.36,28.51-.66,1.16,6.06,3.88,13.73,9.85,17.15a28.7,28.7,0,0,0,23.12,2.18c7.54-2.38,13.28-13.75,14.47-27.4l51.11-8.87c.77,3.44,2.28,7.1,5.18,9.05,4.46,3,9.41,3.86,15.46,2.54a.93.93,0,0,0,.51-.23c6.87-3.11,11.09-20.18,8.15-32.68C273.9,99.22,276.33,85,272.46,60.73Zm-85.53,69.71c-.33,11.15-4.84,20.07-10.09,19.92s-9.22-9.32-8.9-20.48S172.78,109.81,178,110,187.25,119.28,186.93,130.44Zm3.78-17.31C186.88,99,180.36,95.68,167.73,97c9.82-14.12,23.49-5.39,23.14,10.64C190.83,109.47,190.77,111.32,190.71,113.13ZM226,59.42c-9.24.33-20.12,1.08-27.94,1.68,0-1-.05-1.9-.1-2.89,4.58-.47,13.36-1.41,17-2.05,5.08-.88,4.1-5.47,3-13.56s-6-6.76-10.75-6.86-4.79,1.47-5.37,2.74-.49,9.47-1.07,10.35c-.42.62-2.41.66-3.57.63-.72-6.72-1.76-13.32-2.55-17.88,2.26-4.06,3.94-6.93,3.94-6.93s3.12-7.43,10-8.21,10.55,0,10.55,0S227.19,44.57,226,59.42Zm12.83-1.17c.18-10-9.33-42.16-9.33-42.16,1.28.44,14.85-2.23,22.95,4.62,6.44,5.44,9.7,30.53,9.7,36.14C258.44,57.76,254.81,57.19,238.85,58.25ZM270,116.15c-.59,7.38-3.76,13.14-7.07,12.87s-5.51-6.46-4.91-13.84,3.76-13.15,7.07-12.88S270.6,108.77,270,116.15Zm-2.48-21.31h0s-2.43-2.24-10.58-1.28c3.68-9.41,13.17-8.13,15.12,7.73C271,98.14,269.4,95.84,267.52,94.84Z"/></g><g id="Camada_2-2" data-name="Camada 2"><path class="cls-1" d="M0,229.16V180.85H13.34q25.55,0,25.54,23.55,0,11.17-7.09,18t-19,6.79ZM5.66,186V224h7.21q9.5,0,14.79-5.09T33,204.53Q33,186,13.21,186Z"/><path class="cls-1" d="M85.78,229.16H79.51l-5.12-13.54H53.91l-4.82,13.54h-6.3l18.53-48.31h5.86ZM72.54,210.53,65,189.94a18.63,18.63,0,0,1-.74-3.23h-.14a17.69,17.69,0,0,1-.77,3.23l-7.52,20.59Z"/><path class="cls-1" d="M121.46,186H107.51v43.19h-5.66V186H87.93v-5.12h33.53Z"/><path class="cls-1" d="M166.44,229.16h-6.27l-5.12-13.54H134.56l-4.81,13.54h-6.3L142,180.85h5.86Zm-13.25-18.63-7.58-20.59a20.73,20.73,0,0,1-.74-3.23h-.13a18.44,18.44,0,0,1-.78,3.23l-7.51,20.59Z"/><path class="cls-1" d="M203.16,198.37H189v-9.49a17.21,17.21,0,0,0-.45-5.16,2,2,0,0,0-2-1,2.09,2.09,0,0,0-2.22,1.25,19.12,19.12,0,0,0-.47,5.39v25.33a17.89,17.89,0,0,0,.47,5.19,2.43,2.43,0,0,0,4.2,0,20.21,20.21,0,0,0,.48-5.71v-6.86h14.19v2.13q0,8.47-1.2,12a12.26,12.26,0,0,1-5.29,6.21,18.08,18.08,0,0,1-10.09,2.66,20.93,20.93,0,0,1-10.27-2.25A11,11,0,0,1,171,221.8q-1.32-4-1.31-12V193.85A70.83,70.83,0,0,1,170,185a12.34,12.34,0,0,1,2.41-5.68A13.5,13.5,0,0,1,178,175a20.15,20.15,0,0,1,8.17-1.56,19.93,19.93,0,0,1,10.34,2.42,11.63,11.63,0,0,1,5.36,6q1.27,3.62,1.28,11.25Z"/><path class="cls-1" d="M232.76,174.61l8.12,54.55h-14.5l-.76-9.81h-5.07l-.86,9.81H205l7.23-54.55Zm-7.51,35.08q-1.08-9.27-2.16-22.91-2.18,15.66-2.72,22.91Z"/><path class="cls-1" d="M243.29,174.61h10q10,0,13.59.78a9.28,9.28,0,0,1,5.79,4Q275,182.53,275,189.5q0,6.38-1.59,8.56t-6.23,2.63c2.81.7,4.69,1.63,5.66,2.8a8.31,8.31,0,0,1,1.8,3.21,50,50,0,0,1,.36,8.07v14.39H261.78V211c0-2.92-.23-4.72-.69-5.42s-1.67-1.05-3.62-1.05v24.6H243.29ZM257.47,184v12.12a6.24,6.24,0,0,0,3.35-.65q1-.66,1-4.26v-3c0-1.73-.31-2.87-.92-3.41A5.29,5.29,0,0,0,257.47,184Z"/></g></g></svg>